<svg width="1440" height="3590" viewBox="0 0 1440 3590" fill="none" xmlns="http://www.w3.org/2000/svg">
<g clip-path="url(#clip0_1_2)">
<rect width="1440" height="3590" fill="white"/>
<path fill-rule="evenodd" clip-rule="evenodd" d="M714.284 -323.46C827.401 -342.705 967.847 -352.972 1065.88 -317.284C1166.99 -280.476 1186.39 -204.571 1215.04 -141.161C1237.57 -91.3079 1179.66 -37.1448 1214.11 10.7383C1256.62 69.8348 1439.95 95.4615 1430.66 158.552C1422.04 217.089 1247.12 222.678 1176.29 267.675C1107.69 311.254 1114.78 384.464 1025.69 415.813C937.654 446.789 818.839 422.678 714.284 430.241C593.657 438.968 464.272 496.831 359.283 464.022C250.671 430.08 294.268 335.046 227.604 278.153C170.493 229.414 14.7579 215.16 0.915767 158.187C-13.3978 99.2731 144.572 63 161.056 4.24741C179.513 -61.5361 25.4743 -136.039 98.5971 -189.965C169.857 -242.516 343.719 -189.156 456.458 -213.601C559.695 -235.985 608.104 -305.395 714.284 -323.46Z" fill="#C6B7E5"/>
</g>
<defs>
<clipPath id="clip0_1_2">
<rect width="1440" height="3590" fill="white"/>
</clipPath>
</defs>
</svg>
