<svg width="1440" height="3590" viewBox="0 0 1440 3590" fill="none" xmlns="http://www.w3.org/2000/svg">
<g clip-path="url(#clip0_1_2)">
<rect width="1440" height="3590" fill="white"/>
<g clip-path="url(#clip1_1_2)">
<rect width="851" height="813" transform="translate(629 94)" fill="white"/>
<mask id="mask0_1_2" style="mask-type:luminance" maskUnits="userSpaceOnUse" x="629" y="-111" width="851" height="813">
<path d="M1480 -111H629V702H1480V-111Z" fill="white"/>
</mask>
<g mask="url(#mask0_1_2)">
<path d="M1256.12 568.93C1355.75 451.301 1366.07 298.962 1290.76 201.534C1220.38 110.491 1102.12 102.183 1079.49 101.081C957.738 95.1517 821.018 162.251 774.756 288.965C723.834 428.442 815.906 548.66 832.738 568.93H1256.12Z" fill="#F1EBFD"/>
<path d="M1268.33 569.628C1268.33 575.368 1166.43 580.02 1040.72 580.02C915.011 580.02 813.104 575.368 813.104 569.628C813.104 563.889 915.011 559.237 1040.72 559.237C1166.43 559.237 1268.33 563.889 1268.33 569.628Z" fill="#C6B7E5"/>
<path d="M1011.85 542.085V569.671H853.983V542.085H1011.85Z" fill="#FF9C51"/>
<path d="M879.788 542.085V569.671H866.252V542.085H879.788Z" fill="#FFAE70"/>
<path d="M1001.82 542.085V569.671H927.521V542.085H1001.82Z" fill="#FB862C"/>
<path d="M1011.85 567.263V569.671H853.983V567.263H1011.85Z" fill="#FF8E3A"/>
<path d="M1001.25 514.585V542.17H843.381V514.585H1001.25Z" fill="#FF9C51"/>
<path d="M869.186 514.585V542.17H855.65V514.585H869.186Z" fill="#FFAE70"/>
<path d="M991.218 514.585V542.17H916.919V514.585H991.218Z" fill="#FB862C"/>
<path d="M1001.25 539.762V542.17H843.381V539.762H1001.25Z" fill="#FF8E3A"/>
<path d="M1007.46 486.699V514.284H849.595V486.699H1007.46Z" fill="#FF9C51"/>
<path d="M875.4 486.699V514.284H861.864V486.699H875.4Z" fill="#FFAE70"/>
<path d="M997.432 486.699V514.284H923.133V486.699H997.432Z" fill="#FB862C"/>
<path d="M1007.46 511.876V514.284H849.595V511.876H1007.46Z" fill="#FF8E3A"/>
<path d="M989.669 459.113V486.699H831.801V459.113H989.669Z" fill="#FF9C51"/>
<path d="M857.606 459.113V486.699H844.069V459.113H857.606Z" fill="#FFAE70"/>
<path d="M979.637 459.113V486.699H905.339V459.113H979.637Z" fill="#FB862C"/>
<path d="M989.669 484.291V486.699H831.801V484.291H989.669Z" fill="#FF8E3A"/>
<path d="M995.853 431.528V459.113H837.985V431.528H995.853Z" fill="#FF9C51"/>
<path d="M863.79 431.528V459.113H850.253V431.528H863.79Z" fill="#FFAE70"/>
<path d="M985.822 431.528V459.113H911.523V431.528H985.822Z" fill="#FB862C"/>
<path d="M995.853 456.705V459.113H837.985V456.705H995.853Z" fill="#FF8E3A"/>
<path d="M1011.85 403.809V431.394H853.983V403.809H1011.85Z" fill="#FF9C51"/>
<path d="M879.788 403.809V431.394H866.252V403.809H879.788Z" fill="#FFAE70"/>
<path d="M1001.82 403.809V431.394H927.521V403.809H1001.82Z" fill="#FB862C"/>
<path d="M1011.85 428.986V431.394H853.983V428.986H1011.85Z" fill="#FF8E3A"/>
<path d="M1254.05 514.528C1254.05 545.065 1228.14 569.819 1196.17 569.819C1190.68 569.819 1185.38 569.091 1180.36 567.732C1171.92 565.446 1164.26 561.379 1157.86 555.979C1157.06 555.298 1156.27 554.593 1155.5 553.868C1150.64 549.287 1146.63 543.889 1143.71 537.908C1140.79 531.934 1138.95 525.378 1138.45 518.471C1138.34 517.17 1138.29 515.85 1138.29 514.528C1138.29 514.142 1138.3 513.756 1138.31 513.37C1138.31 513.096 1138.32 512.823 1138.33 512.549C1138.35 511.891 1138.39 511.238 1138.44 510.588C1138.46 510.26 1138.49 509.937 1138.52 509.612C1138.59 508.863 1138.67 508.119 1138.77 507.38C1138.8 507.16 1138.83 506.942 1138.87 506.722C1138.91 506.439 1138.95 506.158 1139 505.878C1139.04 505.639 1139.08 505.4 1139.12 505.164C1139.14 505.08 1139.15 504.998 1139.17 504.916C1139.21 504.65 1139.27 504.382 1139.32 504.118C1139.32 504.081 1139.33 504.046 1139.34 504.011C1139.38 503.826 1139.41 503.641 1139.45 503.458C1139.49 503.306 1139.52 503.156 1139.55 503.004C1139.62 502.714 1139.68 502.424 1139.75 502.136C1139.79 501.975 1139.83 501.813 1139.87 501.654C1139.91 501.483 1139.96 501.315 1140 501.146C1140.03 501.05 1140.05 500.954 1140.08 500.861C1140.13 500.648 1140.19 500.433 1140.25 500.222C1140.32 499.967 1140.39 499.712 1140.47 499.459C1140.54 499.237 1140.6 499.015 1140.67 498.792C1140.68 498.769 1140.69 498.746 1140.69 498.722C1140.76 498.502 1140.83 498.282 1140.9 498.065C1140.9 498.058 1140.91 498.051 1140.91 498.046C1141.06 497.585 1141.22 497.126 1141.38 496.672C1141.45 496.485 1141.51 496.301 1141.58 496.116C1141.6 496.057 1141.62 495.999 1141.65 495.943C1141.72 495.727 1141.81 495.514 1141.89 495.301C1141.98 495.074 1142.07 494.848 1142.16 494.623C1142.35 494.143 1142.55 493.666 1142.76 493.193C1142.82 493.064 1142.87 492.936 1142.93 492.807C1143 492.655 1143.07 492.503 1143.14 492.353C1143.17 492.264 1143.21 492.18 1143.26 492.094C1143.35 491.895 1143.44 491.694 1143.54 491.497C1143.57 491.429 1143.6 491.361 1143.64 491.296C1143.76 491.04 1143.89 490.788 1144.01 490.535C1144.13 490.308 1144.24 490.083 1144.36 489.861C1144.42 489.749 1144.47 489.639 1144.53 489.529C1144.63 489.346 1144.73 489.164 1144.83 488.984C1145.25 488.207 1145.69 487.442 1146.16 486.688C1146.25 486.529 1146.35 486.373 1146.45 486.216C1146.84 485.589 1147.24 484.969 1147.66 484.36C1147.78 484.178 1147.91 483.993 1148.04 483.81C1148.05 483.796 1148.06 483.782 1148.07 483.771C1148.31 483.422 1148.56 483.076 1148.81 482.732C1148.9 482.615 1148.98 482.5 1149.07 482.386C1149.2 482.208 1149.34 482.032 1149.47 481.857C1149.6 481.684 1149.73 481.515 1149.87 481.347C1149.99 481.195 1150.11 481.045 1150.23 480.895C1150.53 480.518 1150.84 480.144 1151.15 479.776C1151.31 479.591 1151.47 479.407 1151.62 479.224C1151.78 479.051 1151.93 478.878 1152.08 478.707C1152.39 478.363 1152.7 478.021 1153.01 477.687C1153.16 477.53 1153.3 477.376 1153.45 477.221C1154.04 476.601 1154.65 475.995 1155.27 475.408C1155.44 475.244 1155.6 475.087 1155.77 474.933C1155.83 474.874 1155.89 474.818 1155.95 474.762C1156.15 474.575 1156.36 474.39 1156.56 474.205C1156.83 473.969 1157.1 473.733 1157.37 473.501C1157.55 473.337 1157.75 473.173 1157.94 473.014C1158.26 472.745 1158.58 472.478 1158.9 472.219C1159.06 472.092 1159.22 471.966 1159.37 471.844C1159.42 471.804 1159.47 471.767 1159.52 471.73C1159.75 471.549 1159.98 471.372 1160.21 471.196C1160.21 471.194 1160.21 471.192 1160.22 471.189C1160.46 471.007 1160.7 470.824 1160.95 470.646C1160.98 470.625 1161 470.606 1161.03 470.588C1161.23 470.44 1161.43 470.295 1161.63 470.153C1162.12 469.804 1162.61 469.465 1163.11 469.132C1163.26 469.034 1163.4 468.938 1163.55 468.845C1163.77 468.697 1164 468.552 1164.23 468.407C1164.46 468.26 1164.7 468.112 1164.93 467.967C1165.21 467.798 1165.48 467.635 1165.75 467.474C1166 467.328 1166.25 467.183 1166.49 467.043C1166.87 466.828 1167.25 466.617 1167.63 466.411C1167.83 466.301 1168.03 466.193 1168.24 466.086C1168.25 466.079 1168.26 466.069 1168.28 466.063C1168.56 465.915 1168.84 465.77 1169.12 465.627C1172.71 463.809 1176.53 462.344 1180.52 461.275C1185.5 459.944 1190.75 459.23 1196.17 459.23C1197.07 459.23 1197.96 459.249 1198.85 459.291C1229.57 460.63 1254.05 484.847 1254.05 514.528Z" fill="#FF9C51"/>
<path d="M1241.69 514.527C1241.69 538.545 1221.31 558.012 1196.17 558.012C1184.79 558.012 1174.38 554.017 1166.39 547.416C1166.39 547.416 1166.38 547.411 1166.38 547.406C1156.75 539.435 1150.65 527.664 1150.65 514.527C1150.65 490.511 1171.04 471.043 1196.17 471.043C1208.47 471.043 1219.64 475.705 1227.82 483.285C1236.37 491.186 1241.69 502.263 1241.69 514.527Z" fill="#ED7316"/>
<path d="M1241.69 514.527C1241.69 538.544 1221.31 558.012 1196.17 558.012C1184.79 558.012 1174.38 554.016 1166.39 547.415C1166.39 547.415 1166.38 547.41 1166.38 547.406C1157.88 539.504 1152.6 528.461 1152.6 516.238C1152.6 492.221 1172.99 472.749 1198.12 472.749C1209.47 472.749 1219.85 476.716 1227.82 483.285C1236.37 491.186 1241.69 502.263 1241.69 514.527Z" fill="#FB862C"/>
<path d="M1177.4 279.332L1178.45 279.332C1180.13 279.332 1181.51 278.014 1181.51 276.404L1181.5 253.543C1181.5 251.933 1180.13 250.617 1178.44 250.617L1177.39 250.618C1175.7 250.618 1174.32 251.935 1174.32 253.545L1174.33 276.406C1174.33 278.016 1175.71 279.333 1177.4 279.332Z" fill="#574284"/>
<path d="M1177.41 321.484L1178.46 321.484C1180.15 321.483 1181.53 320.166 1181.53 318.556L1181.52 295.695C1181.52 294.085 1180.14 292.768 1178.45 292.769L1177.4 292.769C1175.71 292.77 1174.34 294.087 1174.34 295.697L1174.34 318.558C1174.35 320.168 1175.72 321.484 1177.41 321.484Z" fill="#574284"/>
<path d="M1175.72 240.101L1175.62 539.023C1175.61 554.863 1162.04 567.818 1145.46 567.813L999.11 567.769C982.53 567.764 968.969 554.8 968.974 538.961L969.072 240.038C969.077 224.199 982.647 211.244 999.227 211.249L1145.58 211.292C1162.16 211.297 1175.72 224.261 1175.72 240.101Z" fill="#AF8FF3"/>
<path d="M1145.58 570.062L999.228 570.106C981.283 570.111 966.679 556.168 966.673 539.024L966.576 240.101C966.57 222.956 981.167 209.012 999.109 208.999L1145.46 208.956C1163.41 208.951 1178.01 222.894 1178.02 240.038L1178.12 538.961C1178.12 554.469 1166.18 567.363 1150.62 569.688C1148.98 569.933 1147.29 570.061 1145.58 570.062ZM971.374 240.1L971.472 539.022C971.477 553.638 983.927 565.526 999.226 565.521L1145.58 565.476C1160.88 565.471 1173.32 553.578 1173.32 538.962L1173.22 240.04C1173.21 225.424 1160.76 213.535 1145.46 213.541L999.111 213.584C997.65 213.585 996.216 213.694 994.816 213.903C981.55 215.884 971.37 226.879 971.374 240.1Z" fill="#574284"/>
<path d="M1029.93 390.261H835.641C830.716 390.261 826.723 386.446 826.723 381.741V282.726C826.723 278.022 830.716 274.207 835.641 274.207H1029.93C1034.85 274.207 1038.85 278.022 1038.85 282.726V381.741C1038.85 386.446 1034.85 390.261 1029.93 390.261Z" fill="white"/>
<path d="M926.525 334.54C926.525 348.674 918.925 361.117 907.408 368.335C900.757 372.508 892.801 374.932 884.245 374.932C860.895 374.932 841.965 356.847 841.965 334.54C841.965 332.494 842.123 330.481 842.434 328.521C845.474 309.07 863.037 294.148 884.245 294.148C891.716 294.148 898.734 296 904.82 299.245C917.772 306.149 926.525 319.37 926.525 334.54Z" fill="#F48F43"/>
<path d="M926.525 334.541C926.525 348.674 918.925 361.117 907.408 368.335V368.33L884.246 334.541L904.82 299.245C917.772 306.15 926.525 319.371 926.525 334.541Z" fill="#9C73F7"/>
<path d="M907.408 368.329V368.335C900.757 372.508 892.801 374.932 884.245 374.932C860.895 374.932 841.965 356.847 841.965 334.54C841.965 332.494 842.123 330.481 842.434 328.521L884.245 334.54L907.408 368.329Z" fill="#794DDA"/>
<path d="M1014.4 306.53H945.838C942.274 306.53 939.358 303.744 939.358 300.339C939.358 296.934 942.274 294.149 945.838 294.149H1014.4C1017.96 294.149 1020.88 296.934 1020.88 300.339C1020.88 303.744 1017.96 306.53 1014.4 306.53Z" fill="#8A5CEE"/>
<path d="M1014.4 328.521H945.838C942.274 328.521 939.358 325.735 939.358 322.33C939.358 318.925 942.274 316.139 945.838 316.139H1014.4C1017.96 316.139 1020.88 318.925 1020.88 322.33C1020.88 325.735 1017.96 328.521 1014.4 328.521Z" fill="#F1EBFD"/>
<path d="M1014.4 350.512H945.838C942.274 350.512 939.358 347.726 939.358 344.321C939.358 340.916 942.274 338.13 945.838 338.13H1014.4C1017.96 338.13 1020.88 340.916 1020.88 344.321C1020.88 347.726 1017.96 350.512 1014.4 350.512Z" fill="#F1EBFD"/>
<path d="M1014.4 372.502H945.838C942.274 372.502 939.358 369.717 939.358 366.312C939.358 362.907 942.274 360.121 945.838 360.121H1014.4C1017.96 360.121 1020.88 362.907 1020.88 366.312C1020.88 369.717 1017.96 372.502 1014.4 372.502Z" fill="#F1EBFD"/>
<path d="M1283.53 301.237H1079.87C1077.55 301.237 1075.64 299.418 1075.64 297.193V245.499C1075.64 243.275 1077.55 241.455 1079.87 241.455H1283.53C1285.86 241.455 1287.76 243.275 1287.76 245.499V297.193C1287.76 299.418 1285.86 301.237 1283.53 301.237Z" fill="white"/>
<path d="M1120.63 273.059C1120.16 281.965 1112.23 288.826 1102.91 288.384C1093.59 287.942 1086.41 280.364 1086.87 271.458C1087.33 262.552 1095.26 255.691 1104.59 256.133C1113.91 256.575 1121.09 264.153 1120.63 273.059Z" fill="#794DDA"/>
<path d="M1092.81 272.999L1099.02 279.529L1115.12 265.663" stroke="white" stroke-width="11.9999" stroke-miterlimit="10"/>
<path d="M1249.76 265.777H1139.83C1137.1 265.777 1134.86 263.64 1134.86 261.028C1134.86 258.415 1137.1 256.278 1139.83 256.278H1249.76C1252.49 256.278 1254.73 258.415 1254.73 261.028C1254.73 263.64 1252.49 265.777 1249.76 265.777Z" fill="#F1EBFD"/>
<path d="M1228.07 286.415H1139.83C1137.1 286.415 1134.86 284.278 1134.86 281.666C1134.86 279.054 1137.1 276.917 1139.83 276.917H1228.07C1230.8 276.917 1233.04 279.054 1233.04 281.666C1233.04 284.278 1230.8 286.415 1228.07 286.415Z" fill="#F1EBFD"/>
<path d="M1270.66 492.86H1078.28C1072.83 492.86 1068.41 488.638 1068.41 483.428V395.949C1068.41 390.74 1072.83 386.517 1078.28 386.517H1270.66C1276.11 386.517 1280.53 390.74 1280.53 395.949V483.428C1280.53 488.638 1276.11 492.86 1270.66 492.86Z" fill="white"/>
<path d="M1258.34 480.275H1083.07C1082.16 480.275 1081.42 479.768 1081.42 479.142V400.782C1081.42 400.156 1082.16 399.649 1083.07 399.649C1083.97 399.649 1084.71 400.156 1084.71 400.782V478.009H1258.34C1259.25 478.009 1259.98 478.516 1259.98 479.142C1259.98 479.768 1259.25 480.275 1258.34 480.275Z" fill="#9C73F7"/>
<path d="M1083.06 464.841C1082.72 464.841 1082.37 464.766 1082.08 464.613C1081.35 464.237 1081.21 463.527 1081.75 463.026L1109.27 437.77C1109.56 437.512 1109.98 437.349 1110.45 437.322C1110.92 437.295 1111.38 437.405 1111.72 437.627L1129.87 449.436L1161.93 423.469C1162.23 423.222 1162.68 423.077 1163.15 423.071C1163.62 423.061 1164.07 423.198 1164.39 423.437L1189.45 442.263L1230.19 410.501C1230.65 410.14 1231.39 410.02 1232.04 410.202L1258.96 417.757C1259.8 417.994 1260.2 418.654 1259.86 419.234C1259.52 419.813 1258.56 420.093 1257.72 419.856L1231.88 412.604L1190.7 444.706C1190.39 444.947 1189.95 445.086 1189.49 445.089C1189.01 445.076 1188.58 444.958 1188.26 444.722L1163.22 425.914L1131.25 451.814C1130.96 452.051 1130.54 452.193 1130.09 452.211C1129.64 452.226 1129.2 452.117 1128.87 451.904L1110.8 440.145L1084.38 464.388C1084.06 464.684 1083.56 464.841 1083.06 464.841Z" fill="#9C73F7"/>
<path d="M1114.89 438.937C1114.89 440.546 1113 441.851 1110.67 441.851C1108.33 441.851 1106.44 440.546 1106.44 438.937C1106.44 437.327 1108.33 436.022 1110.67 436.022C1113 436.022 1114.89 437.327 1114.89 438.937Z" fill="#845BDB"/>
<path d="M1134.06 450.539C1134.06 452.149 1132.17 453.453 1129.84 453.453C1127.51 453.453 1125.61 452.149 1125.61 450.539C1125.61 448.93 1127.51 447.625 1129.84 447.625C1132.17 447.625 1134.06 448.93 1134.06 450.539Z" fill="#845BDB"/>
<path d="M1167.4 424.528C1167.4 426.137 1165.51 427.442 1163.18 427.442C1160.84 427.442 1158.95 426.137 1158.95 424.528C1158.95 422.918 1160.84 421.613 1163.18 421.613C1165.51 421.613 1167.4 422.918 1167.4 424.528Z" fill="#845BDB"/>
<path d="M1193.62 443.416C1193.62 445.025 1191.73 446.33 1189.39 446.33C1187.06 446.33 1185.17 445.025 1185.17 443.416C1185.17 441.807 1187.06 440.502 1189.39 440.502C1191.73 440.502 1193.62 441.807 1193.62 443.416Z" fill="#845BDB"/>
<path d="M1235.72 411.521C1235.72 413.131 1233.83 414.435 1231.5 414.435C1229.16 414.435 1227.27 413.131 1227.27 411.521C1227.27 409.912 1229.16 408.607 1231.5 408.607C1233.83 408.607 1235.72 409.912 1235.72 411.521Z" fill="#845BDB"/>
<path d="M1262.56 418.915C1262.56 420.524 1260.67 421.829 1258.34 421.829C1256 421.829 1254.11 420.524 1254.11 418.915C1254.11 417.306 1256 416.001 1258.34 416.001C1260.67 416.001 1262.56 417.306 1262.56 418.915Z" fill="#845BDB"/>
<path d="M1130.86 405.207H1096.97C1095.21 405.207 1093.76 404.212 1093.76 402.995C1093.76 401.778 1095.21 400.782 1096.97 400.782H1130.86C1132.62 400.782 1134.06 401.778 1134.06 402.995C1134.06 404.212 1132.62 405.207 1130.86 405.207Z" fill="#F48F43"/>
<path d="M1148.07 412.007H1096.97C1095.21 412.007 1093.76 411.012 1093.76 409.795C1093.76 408.578 1095.21 407.582 1096.97 407.582H1148.07C1149.84 407.582 1151.28 408.578 1151.28 409.795C1151.28 411.012 1149.84 412.007 1148.07 412.007Z" fill="#F1EBFD"/>
<path d="M1048.23 565.716H844.573C842.244 565.716 840.339 563.896 840.339 561.672V509.978C840.339 507.754 842.244 505.934 844.573 505.934H1048.23C1050.56 505.934 1052.46 507.754 1052.46 509.978V561.672C1052.46 563.896 1050.56 565.716 1048.23 565.716Z" fill="white"/>
<path d="M861.02 514.072V557.785H850.792V514.072H861.02Z" fill="#F1EBFD"/>
<path d="M877.627 514.072V557.785H867.4V514.072H877.627Z" fill="#F1EBFD"/>
<path d="M894.236 514.072V557.785H884.008V514.072H894.236Z" fill="#F1EBFD"/>
<path d="M910.843 514.072V557.785H900.615V514.072H910.843Z" fill="#F1EBFD"/>
<path d="M927.451 514.072V557.785H917.223V514.072H927.451Z" fill="#F1EBFD"/>
<path d="M944.059 514.072V557.785H933.831V514.072H944.059Z" fill="#F1EBFD"/>
<path d="M960.667 514.072V557.785H950.439V514.072H960.667Z" fill="#F1EBFD"/>
<path d="M861.02 527.347V557.784H850.792V527.347H861.02Z" fill="#9C73F7"/>
<path d="M877.627 533.823V557.784H867.4V533.823H877.627Z" fill="#9C73F7"/>
<path d="M894.236 523.3V557.785H884.008V523.3H894.236Z" fill="#9C73F7"/>
<path d="M910.843 529.29V557.785H900.615V529.29H910.843Z" fill="#9C73F7"/>
<path d="M927.451 539.814V557.785H917.223V539.814H927.451Z" fill="#9C73F7"/>
<path d="M944.059 528.481V557.784H933.831V528.481H944.059Z" fill="#9C73F7"/>
<path d="M960.667 523.3V557.785H950.439V523.3H960.667Z" fill="#9C73F7"/>
<path d="M1004.89 521.106H973.386C971.361 521.106 969.705 519.523 969.705 517.589C969.705 515.654 971.361 514.072 973.386 514.072H1004.89C1006.91 514.072 1008.57 515.654 1008.57 517.589C1008.57 519.523 1006.91 521.106 1004.89 521.106Z" fill="#F48F43"/>
<path d="M1021.72 533.332H973.386C971.361 533.332 969.705 531.749 969.705 529.815C969.705 527.88 971.361 526.298 973.386 526.298H1021.72C1023.75 526.298 1025.4 527.88 1025.4 529.815C1025.4 531.749 1023.75 533.332 1021.72 533.332Z" fill="#F1EBFD"/>
<path d="M1021.72 545.558H973.386C971.361 545.558 969.705 543.976 969.705 542.041C969.705 540.107 971.361 538.524 973.386 538.524H1021.72C1023.75 538.524 1025.4 540.107 1025.4 542.041C1025.4 543.976 1023.75 545.558 1021.72 545.558Z" fill="#F1EBFD"/>
<path d="M1021.72 557.784H973.386C971.361 557.784 969.705 556.202 969.705 554.267C969.705 552.333 971.361 550.75 973.386 550.75H1021.72C1023.75 550.75 1025.4 552.333 1025.4 554.267C1025.4 556.202 1023.75 557.784 1021.72 557.784Z" fill="#F1EBFD"/>
<mask id="mask1_1_2" style="mask-type:luminance" maskUnits="userSpaceOnUse" x="629" y="-111" width="851" height="813">
<path d="M629 -111H1480V702H629V-111Z" fill="white"/>
</mask>
<g mask="url(#mask1_1_2)">
<path d="M1191.31 558.121C1191.31 558.121 1202.17 564.792 1199.44 567.037C1196.71 569.281 1194.43 568.189 1192.96 569.159C1191.5 570.13 1192.9 570.797 1186.36 570.615C1179.82 570.433 1179.7 570.009 1180.33 567.886C1180.97 565.763 1179.95 564.155 1183.19 564.383C1186.43 564.611 1191.74 565.096 1191.91 563.216C1192.08 561.335 1191.31 558.121 1191.31 558.121Z" fill="#3C3D00"/>
<path d="M1181.9 558.849C1181.9 559.011 1181.35 565.157 1181.52 565.197C1181.69 565.238 1192.6 565.116 1192.69 564.955C1192.77 564.793 1192.48 559.577 1192.48 559.577L1190.79 558.646L1181.9 558.849Z" fill="#EC4F9D"/>
<path d="M1140.83 558.512C1140.83 558.674 1141.38 564.82 1141.21 564.86C1141.05 564.901 1130.13 564.78 1130.04 564.618C1129.96 564.456 1130.25 559.24 1130.25 559.24L1131.95 558.31L1140.83 558.512Z" fill="#EC4F9D"/>
<path d="M1131.42 557.784C1131.42 557.784 1120.56 564.456 1123.29 566.7C1126.02 568.944 1128.31 567.853 1129.77 568.823C1131.23 569.794 1129.83 570.461 1136.37 570.278C1142.91 570.096 1143.03 569.672 1142.4 567.549C1141.76 565.427 1142.78 563.819 1139.54 564.046C1136.31 564.274 1130.99 564.759 1130.82 562.879C1130.65 560.999 1131.42 557.784 1131.42 557.784Z" fill="#3C3D00"/>
<path d="M1192.05 492.765C1191.86 494.046 1191.95 531.187 1192.01 549.382C1192.01 549.388 1192.01 549.391 1192.01 549.396C1192.03 555.325 1192.05 559.241 1192.05 559.241H1181.38L1180.84 555.082L1173.25 496.162L1160.57 457.383C1160.57 457.372 1160.56 457.361 1160.56 457.353C1160.56 457.35 1160.56 457.347 1160.56 457.344L1150.65 492.765L1141.51 559.241H1130.25V491.472C1130.25 491.472 1132.58 456.51 1133.56 441.695C1133.81 437.791 1133.98 435.286 1133.98 435.187L1188.49 436.722C1188.57 436.852 1188.64 436.991 1188.71 437.138C1189.04 437.792 1189.33 438.609 1189.59 439.567C1193.23 452.531 1192.28 491.208 1192.05 492.765Z" fill="#6E6F1F"/>
<path d="M1195.06 377.637C1195.06 377.637 1203.73 384.925 1203.73 387.351C1203.73 389.777 1186.59 422.651 1186.59 422.651L1190.18 443.516C1190.18 443.516 1192.64 442.383 1191.45 435.509C1190.27 428.635 1203.73 412.138 1203.73 412.138C1203.73 412.138 1220.49 387.715 1217.87 383.106C1215.24 378.496 1209.23 368.549 1209.23 368.549L1194.49 377.222L1195.06 377.637Z" fill="#EC4F9D"/>
<path d="M1111.04 329.744C1109.95 329.103 1108.63 328.804 1107.29 328.983C1104.17 329.395 1102.05 332.187 1102.54 335.219C1102.73 336.426 1103.32 337.484 1104.14 338.3C1104.14 338.301 1104.14 338.305 1104.14 338.306C1104.24 338.479 1113.97 348.347 1113.97 348.347L1123.33 336.729C1123.58 336.186 1111.04 329.744 1111.04 329.744Z" fill="#EC4F9D"/>
<path d="M1148.88 344.03L1122.68 335.478L1113.86 346.975L1113.23 347.787L1131.17 367.834C1131.82 368.722 1132.55 369.54 1133.36 370.279L1133.37 370.293L1133.37 370.291C1136.88 373.492 1141.77 375.198 1146.83 374.527C1155.65 373.359 1161.67 365.452 1160.28 356.867C1159.27 350.669 1154.68 345.812 1148.88 344.03Z" fill="#F48F43"/>
<path d="M1113.53 333.941L1113.53 333.94L1113.5 333.717C1113.49 333.661 1113.48 333.605 1113.47 333.55L1107.82 295.546C1107.82 295.546 1110.07 290.958 1109.68 287.36C1109.3 283.763 1108.98 281.031 1107.81 280.839C1106.65 280.647 1107.02 286.204 1107.09 286.211C1107.15 286.218 1099.6 284.634 1100.46 292.574C1100.46 292.574 1100.84 295.283 1101.53 296.004C1102.15 296.663 1102.25 328.856 1102.29 334.477C1102.28 334.691 1102.28 334.904 1102.3 335.113C1102.3 335.234 1102.3 335.307 1102.3 335.314C1102.3 335.318 1102.31 335.32 1102.32 335.322C1102.6 337.775 1104.56 339.793 1107.18 340.087C1110.27 340.434 1113.1 338.266 1113.51 335.245C1113.57 334.801 1113.57 334.365 1113.53 333.941Z" fill="#EC4F9D"/>
<path d="M1168.4 336.773C1168.75 338.422 1169.12 340.081 1169.16 340.508C1169.22 341.356 1151.76 340.203 1151.76 340.203C1151.76 340.203 1153.08 337.341 1152.83 334.8C1152.7 333.473 1152.57 332.143 1152.47 331.162C1152.4 330.525 1152.34 330.035 1152.31 329.791L1156.09 329.328L1169.47 327.308C1169.47 327.308 1169.08 328.682 1168.67 330.101C1168.3 331.409 1167.92 332.758 1167.83 333.107C1167.75 333.39 1167.93 334.446 1168.17 335.676C1168.24 336.03 1168.32 336.402 1168.4 336.773Z" fill="#EC4F9D"/>
<path d="M1210.67 368.872L1196.17 377.01L1194.25 378.091L1187.98 370.33C1184.26 378.739 1187.65 432.599 1189 435.996C1189.49 437.226 1188.51 438.287 1186.27 439.202C1182.43 440.773 1174.87 441.909 1164.67 442.729H1164.66C1164.42 442.748 1164.18 442.768 1163.94 442.787C1147.35 444.081 1136.85 439.554 1133.81 437.611C1130.76 435.672 1138.51 380.375 1136.01 376.151C1122.73 353.746 1135.04 341.783 1148.62 339.68C1152.38 339.098 1158.86 338.962 1158.98 338.951C1188.73 336.202 1210.67 368.872 1210.67 368.872Z" fill="#F48F43"/>
<path d="M1172.96 321.116C1172.61 324.623 1171.04 327.782 1168.67 330.101C1166.52 332.216 1163.7 333.634 1160.55 333.994C1160.29 334.024 1160.02 334.05 1159.75 334.063C1156.49 334.249 1153.42 333.285 1150.9 331.506C1147.38 329.029 1144.97 324.964 1144.67 320.26C1144.57 318.525 1144.75 316.843 1145.2 315.269C1145.57 313.934 1146.13 312.676 1146.84 311.526C1149.19 307.725 1153.21 305.109 1157.93 304.841C1165.76 304.394 1172.5 310.576 1173.01 318.644C1173.06 319.484 1173.04 320.309 1172.96 321.116Z" fill="#EC4F9D"/>
<path d="M1140 305.026C1140 305.026 1139.91 312.789 1147.61 315.134C1155.32 317.479 1154.47 317.722 1154.05 319.905C1153.62 322.089 1154.22 334.947 1171.06 329.529C1187.91 324.111 1175.8 296.615 1158.45 298.394C1141.1 300.173 1140 305.026 1140 305.026Z" fill="#6E6F1F"/>
</g>
<path d="M1241.7 138.645C1241.7 155.015 1227.81 168.285 1210.67 168.285C1193.54 168.285 1179.65 155.015 1179.65 138.645C1179.65 122.276 1193.54 109.006 1210.67 109.006C1227.81 109.006 1241.7 122.276 1241.7 138.645Z" fill="#F48F43"/>
<path d="M1384.9 85.7309C1384.9 96.1607 1376.05 104.615 1365.13 104.615C1354.21 104.615 1345.36 96.1607 1345.36 85.7309C1345.36 75.3012 1354.21 66.8467 1365.13 66.8467C1376.05 66.8467 1384.9 75.3012 1384.9 85.7309Z" fill="#C6B7E5"/>
<path d="M766.333 233.065C766.333 240.538 759.991 246.597 752.167 246.597C744.344 246.597 738.002 240.538 738.002 233.065C738.002 225.591 744.344 219.532 752.167 219.532C759.991 219.532 766.333 225.591 766.333 233.065Z" fill="#C6B7E5"/>
<path d="M905.919 199.705C905.919 208.371 898.565 215.397 889.494 215.397C880.422 215.397 873.068 208.371 873.068 199.705C873.068 191.039 880.422 184.013 889.494 184.013C898.565 184.013 905.919 191.039 905.919 199.705Z" fill="#F48F43"/>
</g>
</g>
</g>
<defs>
<clipPath id="clip0_1_2">
<rect width="1440" height="3590" fill="white"/>
</clipPath>
<clipPath id="clip1_1_2">
<rect width="851" height="813" fill="white" transform="translate(629 94)"/>
</clipPath>
</defs>
</svg>
